<?xml version="1.0" standalone="no"?>
<!DOCTYPE svg PUBLIC "-//W3C//DTD SVG 20010904//EN"
 "http://www.w3.org/TR/2001/REC-SVG-20010904/DTD/svg10.dtd">
<svg version="1.0" xmlns="http://www.w3.org/2000/svg"
 width="700.000000pt" height="700.000000pt" viewBox="0 0 700.000000 700.000000"
 preserveAspectRatio="xMidYMid meet">
<metadata>
Created by potrace 1.11, written by Peter Selinger 2001-2013
</metadata>
<g transform="translate(0.000000,700.000000) scale(0.100000,-0.100000)"
fill="#000000" stroke="none">
<path d="M2650 6989 c-19 -5 -45 -11 -58 -13 -66 -14 -177 -81 -246 -149 -161
-161 -215 -366 -155 -592 11 -41 62 -145 89 -180 30 -39 133 -137 154 -146 11
-5 35 -17 51 -27 123 -75 321 -89 470 -34 103 37 154 70 229 146 81 82 132
179 163 311 18 80 -5 258 -45 345 -71 152 -213 277 -372 325 -63 19 -228 27
-280 14z"/>
<path d="M4146 6955 c-98 -29 -180 -77 -256 -155 -230 -232 -228 -598 4 -834
161 -162 411 -216 631 -134 212 79 372 303 380 530 13 407 -369 706 -759 593z"/>
<path d="M1267 6224 c-259 -61 -449 -298 -451 -564 -1 -185 49 -308 179 -437
286 -282 767 -199 943 162 44 90 57 150 57 255 0 114 -7 151 -41 231 -62 148
-162 252 -306 318 -106 48 -263 63 -381 35z"/>
<path d="M5500 6168 c-115 -32 -188 -74 -271 -158 -364 -367 -122 -988 391
-1006 168 -6 317 48 428 154 136 132 194 273 188 457 -10 264 -175 476 -431
551 -83 24 -223 25 -305 2z"/>
<path d="M3329 5606 c-2 -2 -34 -7 -71 -10 -327 -33 -669 -160 -951 -352 -440
-301 -757 -768 -872 -1283 -9 -41 -18 -93 -21 -115 -3 -23 -7 -47 -9 -54 -22
-67 -23 -543 -1 -581 2 -3 7 -30 10 -60 4 -29 8 -56 10 -60 2 -3 7 -24 10 -46
9 -55 30 -130 78 -265 151 -431 466 -822 868 -1076 195 -123 496 -242 705
-279 17 -3 44 -8 60 -11 175 -34 492 -37 677 -4 29 5 67 11 83 14 124 20 357
98 500 166 201 96 362 206 539 370 54 50 87 84 154 159 34 38 154 199 183 246
13 22 30 49 36 60 7 11 42 79 78 150 75 150 146 356 171 495 3 14 7 32 9 40 2
8 7 38 10 65 4 28 9 61 12 75 9 47 11 395 2 470 -42 355 -154 662 -342 945
-201 303 -491 560 -814 723 -123 63 -357 147 -464 167 -13 3 -58 11 -99 19
-41 8 -93 18 -115 21 -46 7 -430 17 -436 11z"/>
<path d="M495 4893 c-217 -44 -393 -209 -456 -428 -24 -83 -19 -246 10 -334
64 -194 243 -358 436 -399 82 -18 240 -9 315 17 236 82 397 296 405 538 6 176
-51 320 -175 443 -145 145 -336 203 -535 163z"/>
<path d="M6360 4832 c-245 -26 -437 -178 -520 -412 -30 -84 -33 -266 -6 -345
36 -105 80 -179 151 -250 186 -187 456 -231 688 -114 72 36 76 39 156 119 149
148 206 377 146 580 -57 189 -229 355 -420 404 -60 15 -148 23 -195 18z"/>
<path d="M557 3354 c-1 -1 -25 -4 -54 -8 -170 -20 -355 -153 -435 -314 -116
-231 -78 -496 99 -679 116 -121 258 -184 417 -185 101 -1 178 17 275 65 350
170 437 634 175 926 -81 91 -224 169 -334 186 -49 7 -139 13 -143 9z"/>
<path d="M6337 3283 c-2 -1 -21 -5 -43 -9 -394 -61 -614 -490 -437 -853 51
-105 159 -213 263 -263 235 -113 489 -73 678 106 60 58 81 86 117 160 53 112
64 161 60 285 -7 252 -169 467 -411 545 -44 14 -220 37 -227 29z"/>
<path d="M1190 1977 c-193 -57 -339 -199 -401 -388 -33 -102 -34 -263 -1 -361
107 -323 448 -491 767 -379 190 67 338 239 379 442 59 291 -110 583 -394 679
-97 33 -251 36 -350 7z"/>
<path d="M5454 1930 c-193 -49 -341 -179 -412 -360 -33 -85 -42 -141 -38 -242
11 -312 254 -553 567 -564 452 -16 748 439 553 852 -69 147 -225 273 -389 314
-82 20 -201 20 -281 0z"/>
<path d="M2561 1194 c-210 -46 -393 -220 -445 -424 -55 -215 -2 -415 153 -571
118 -119 235 -170 398 -174 109 -3 180 10 262 47 161 73 290 227 335 398 14
54 16 227 3 279 -54 212 -209 373 -417 435 -75 23 -210 27 -289 10z"/>
<path d="M4119 1175 c-298 -60 -508 -355 -467 -656 25 -188 137 -352 301 -443
390 -216 877 68 879 512 0 86 -5 121 -28 190 -30 90 -79 167 -149 237 -141
141 -339 200 -536 160z"/>
</g>
</svg>
